<svg xmlns="http://www.w3.org/2000/svg" viewBox="0 0 410 404"><defs><linearGradient id="a" x1=".84" x2=".19" y1=".11" y2=".95"><stop stop-color="#41D1FF"/><stop offset="1" stop-color="#BD34FE"/></linearGradient><linearGradient id="b" x1=".78" x2=".24" y1=".01" y2="1"><stop stop-color="#FFEA83"/><stop offset=".083" stop-color="#FFDD35"/><stop offset="1" stop-color="#FFA800"/></linearGradient></defs><path fill="url(#a)" d="M399.641 59.525L215.409 388.545c-3.954 7.06-14.24 6.85-17.89-.376L10.487 59.6c-4.28-8.185 3.08-17.43 12.1-15.71l171.962 32.09a10 10 0 0 0 3.64-.01l189.4-32.065c9.04-1.53 16.32 7.51 12.02 15.71Z"/><path fill="url(#b)" d="M292.17 1.574L156.66 27.04a6 6 0 0 0-4.9 5.67l-7.28 141.75a6 6 0 0 0 7.72 6.06l38.92-11.91c4.24-1.3 8.57 1.77 8.57 6.2v.64c0 3.01 2.82 5.28 5.77 4.82l24.04-3.69c3.45-.53 6.48 2.32 6.12 5.79l-11.35 104.92c-.72 6.63 8.17 9.55 11.55 3.89L305.7 95.47a6 6 0 0 0-6.27-8.6l-40.79 5.22c-3.59.46-6.64-2.65-6.09-6.21l13.33-83.25c.73-4.56-3.14-8.54-7.61-7.65Z"/></svg>
